<svg xmlns="http://www.w3.org/2000/svg" version="1.1" viewBox="0 0 521 513">
  <defs>
    <style>
      .cls-1 {
        fill: none;
        stroke: #fff;
        stroke-miterlimit: 10;
        stroke-width: 24px;
      }

      .cls-2 {
        fill: #fff;
      }
    </style>
  </defs>
  <!-- Generator: Adobe Illustrator 28.7.1, SVG Export Plug-In . SVG Version: 1.2.0 Build 142)  -->
  <g>
    <g id="Capa_1">
      <circle class="cls-1" cx="260.5" cy="256.5" r="235"/>
      <g>
        <path class="cls-2" d="M278,353.9c69.9,20,110-5,132.8-75.6,6.7,13.6,8.3,27,10,40.1,1.8,14.1,3.2,28.4,2.9,42.6-.4,14.5,3.2,27.2,11.1,39,2.6,3.9,4.2,6.8,0,11.5-36.6,40.8-80.5,68-135.6,75.2-5.1.7-9.2,1.1-13.2-3.2-37.5-40.5-81.2-73.4-126.2-104.8-11.7-8.2-19.3-19.6-27.4-30.8-11.2-15.5-22.2-31.1-33.2-46.8-6.1-8.8-13-18.3-8.9-29.2,7.6-20,7.2-40.7,8-61.4.2-5.5-2.5-13.2,5.5-15.8,8.1-2.7,12.8,3,17.2,8.5,14.7,18.4,20.3,39.5,18.7,62.7-.5,7.4-3.9,13.1-11.1,16.1-1.9.8-3.6,2.2-2.8,4.6,1,2.9,3.4,3.1,6,2.4,1.2-.3,2.6-.6,3.4-1.4,9.9-10.4,15.8-3.9,23.2,4.1,22,23.7,51.8,34.7,80.9,46.1,16.5,6.4,30.6,13.7,36.5,31.6,1.1,3.3,3.4,7.5,7.8,4.7,4.4-2.8-.8-5.5-1.4-8.2-.9-3.7-4.4-6.6-4.1-12.1Z"/>
        <path class="cls-2" d="M340,166.1c0,10.1.3,20.3,0,30.4-.6,14.4-7.1,19.3-24.2,19.1-11.3,0-15.5-5-16.2-18.6-.9-17-2.7-34-1.6-51,.1-2.3,0-6.4-1.1-6.8-14.6-5.4-4-15.7-1.8-20.5,3.5-7.6,13.4-9.7,22.2-7.9,9.8,2,19.1,6,20.3,17.6,1.3,12.5,1.5,25.1,2.1,37.7.1,0,.3,0,.4,0Z"/>
        <path class="cls-2" d="M215.3,126.2c1.8-20.1,8.6-36.3,23-40.9,12.6-4.1,21.6-.9,26.6,11.3,8.2,19.7,11.9,40.8,15.8,61.6,1.4,7.5-3.2,13.8-11,16.9-16,6.4-25.8.5-30.9-16-3.5-11.3-4-23.5-10.5-33.9-4.1-6.7-7.8-13.5-13,1Z"/>
        <path class="cls-2" d="M353.3,213.1c1.1-7.9,2.3-17.2,3.6-26.4.4-2.8,2.5-6.1.4-8.2-9.1-8.7.9-11.8,4.9-15.7,5.4-5.2,12-8.3,19.6-2.9,8.5,6,11.4,14.6,10.9,24.3-.6,13-3.4,25.7-9,37.4-4,8.4-9.6,15.1-20.9,12.5-11.7-2.7-8.2-12.2-9.6-21.1Z"/>
        <path class="cls-2" d="M160.3,129.2c-5,2.6-9.6,5-14.3,7.5-6.5-11.5-5.7-22.1,1.8-32.3,2.4-3.3,4.9-6.5,7-10,7.7-12.3,20.4-14.7,32.7-6.7,7,4.6,11.8,11.6,19.3,16,5.1,2.9,2.5,8.3-1.6,12-10.3,9.4-31.7,10.2-44.4,2.4-3.5-2.1-7.2-10.3-11.7-4.3-4.1,5.5,3.9,8.3,7.2,11.8,1.1,1.1,2.3,2.1,4,3.5Z"/>
        <path class="cls-2" d="M195.9,215.3c-14.2.6-22.8-8.9-31.1-18.1-3.9-4.3-.6-7.2,3.9-8.8,10.1-3.5,35.9,6.8,40.7,16.3,3.4,6.8-1.7,10.9-13.4,10.6Z"/>
        <path class="cls-2" d="M248.8,196.7c3.9,2.1,10.5,2.3,10.2,9.2-.2,4.5-4.6,5-8.4,4.6-4.4-.6-9-1.6-9.2-7.4-.1-4.4,2.4-6.5,7.3-6.4Z"/>
        <path class="cls-2" d="M381.9,243.1l1.1-.2c-.3,0-.6,0-.9,0,0,0-.2.2-.2.2Z"/>
        <path class="cls-2" d="M400.6,236.5c-.9-3.9-1.4-8.7-6.2-9.6-4.2-.8-5.9,3.2-8.3,5.8-9.8,11.1-19.9,13.3-33.8,7.9-2.7-1-5.7-1-5.4-5,1-14.7-7-14.6-18.2-12-21.3,5-35.2-5.8-37.8-27.3-.8-6.1-1.2-12.3-1.9-18.6-.2-3-.4-6-.6-9.1-.2.2-.3.3-.5.4,0-.6-.2-1.2-.3-1.9-2,.8-2.5,2.4-3.4,3.7-9,13.1-22.2,15.8-36.4,12.6-2.2-.5-4.2-1.2-5.8-2.2-2.4-1.5-4.3-3.2-5.9-5.3,0-.1-.2-.3-.3-.4,0,0-.1-.2-.2-.3-3.3-4.9-4.6-11.4-5.5-17.9-.4-2.7-.9-5.3-1.5-7.6-.6-2.5-1.3-4.7-2.2-6.7-5-11.7-14.3-15.3-29.6-12.3-.8,0-1.5.2-2.3.3-2.4.4-4.8,1.1-7.2,1.1-14.3-.5-25.8,3-35.5,9.3-12.1,6-20.1,15.9-26.8,28-7.7,13.9-11.1,16.9,3.2,31.7,12.3,12.7,18.3,30,19.3,47.4.8,14.6,2.5,26.4,18.5,30.8,3-4.4-3.7-6.6-2.5-11.6,2.9,1.4,5.6,2.2,7.7,3.8,20,16.4,44.2,25,67.4,35.2,13.6,6,27.2,13.1,41.6,15.9,27.9,5.3,55.5,3.6,81.9-9.7,21.9-11,44.2-53,38.7-76.5Z"/>
      </g>
    </g>
  </g>
</svg>